HIERARCHY
ROOT Hips
{
   OFFSET 0.00000 0.00000 0.00000
   CHANNELS 6 Xposition Yposition Zposition Zrotation Xrotation Yrotation
   JOINT Spine
   {
      OFFSET 0.000000 11.890501 0.000000
      CHANNELS 3 Zrotation Xrotation Yrotation
      JOINT Spine1
      {
         OFFSET -0.000000 25.657401 0.127660
         CHANNELS 3 Zrotation Xrotation Yrotation
         JOINT HEad
         {
            OFFSET 0.000000 8.734161 0.011340
            CHANNELS 3 Zrotation Xrotation Yrotation
            End Site
            {
               OFFSET -0.290000 12.774200 2.513950
            }
         }
         JOINT LeftShoulder1
         {
            OFFSET 8.990000 -0.362250 -0.220000
            CHANNELS 3 Zrotation Xrotation Yrotation
            JOINT LeftArm
            {
               OFFSET 10.282700 -0.003380 0.322120
               CHANNELS 3 Zrotation Xrotation Yrotation
               JOINT LeftForeArm
               {
                  OFFSET 32.766900 0.099140 -1.424340
                  CHANNELS 3 Zrotation Xrotation Yrotation
                  JOINT LeftHand
                  {
                     OFFSET 27.564301 0.085360 1.022160
                     CHANNELS 3 Zrotation Xrotation Yrotation
                     End Site
                     {
                        OFFSET 16.744301 -0.600000 1.502910
                     }
                  }
               }
            }
         }
         JOINT RightShoulder
         {
            OFFSET -8.990000 -0.362250 -0.220000
            CHANNELS 3 Zrotation Xrotation Yrotation
            JOINT RightArm
            {
               OFFSET -10.282700 -0.003380 0.322120
               CHANNELS 3 Zrotation Xrotation Yrotation
               JOINT RightForeArm
               {
                  OFFSET -32.897098 0.099140 -1.424340
                  CHANNELS 3 Zrotation Xrotation Yrotation
                  JOINT RightHand
                  {
                     OFFSET -27.492101 0.085360 1.022160
                     CHANNELS 3 Zrotation Xrotation Yrotation
                     End Site
                     {
                        OFFSET -16.631201 -0.600000 1.502910
                     }
                  }
               }
            }
         }
      }
   }
   JOINT LeftUpLeg
   {
      OFFSET 8.945800 -8.667070 0.101650
      CHANNELS 3 Zrotation Xrotation Yrotation
      JOINT LeftLeg
      {
         OFFSET 0.000000 -44.422697 1.372700
         CHANNELS 3 Zrotation Xrotation Yrotation
         JOINT LeftFoot
         {
            OFFSET -0.253550 -42.092399 -1.460590
            CHANNELS 3 Zrotation Xrotation Yrotation
            JOINT LeftToes
            {
               OFFSET -0.040000 -4.415090 8.499099
               CHANNELS 3 Zrotation Xrotation Yrotation
               End Site
               {
                  OFFSET 0.080000 -0.047450 9.779790
               }
            }
         }
      }
   }
   JOINT RightUpLeg
   {
      OFFSET -8.945800 -8.667070 0.101650
      CHANNELS 3 Zrotation Xrotation Yrotation
      JOINT RightLeg
      {
         OFFSET 0.000000 -44.422697 1.372700
         CHANNELS 3 Zrotation Xrotation Yrotation
         JOINT RightFoot
         {
            OFFSET 0.253550 -42.092399 -1.460590
            CHANNELS 3 Zrotation Xrotation Yrotation
            JOINT RightToes
            {
               OFFSET 0.040000 -4.415090 8.499099
               CHANNELS 3 Zrotation Xrotation Yrotation
               End Site
               {
                  OFFSET -0.080000 -0.137450 9.779790
               }
            }
         }
      }
   }
}
MOTION
Frames: 10
Frame Time: 0.016670
-32.135803 77.419966 -26.275227 39.989187 21.475684 119.092913 6.017754 34.336437 4.972515 1.594930 29.858674 -14.062349 -22.233348 1.995188 15.452564 -10.091038 12.804437 -15.803862 14.632145 -25.553218 -19.014420 41.856437 11.876497 -34.297771 -81.095300 -110.062440 -127.133029 -157.577327 31.783483 125.454606 117.570041 16.650266 227.337615 -17.288804 26.283562 52.926624 -6.923992 15.432283 28.620813 19.015984 2.522963 -80.045214 -24.232963 -9.290561 76.252013 5.955007 35.029639 26.447549 -47.426552 1.695550 -19.851496 -26.859085 37.002663 5.757804 31.129970 2.787292 -11.977488 3.807574 26.469792 38.245255 58.363174 -41.984934 -27.101631
-32.067077 79.366320 -27.959220 37.815359 18.301574 119.335344 5.332969 38.593622 4.119178 0.978409 27.592586 -11.089576 -23.089769 -0.605334 14.467437 -7.889360 9.968413 -17.106284 11.478783 -28.703795 -19.357434 41.589835 10.737238 -32.725041 -88.346291 -105.030230 -127.474580 -160.475677 28.035386 126.571602 117.534005 18.171361 234.235218 -18.775150 24.331459 52.872136 -9.385774 13.432368 26.373502 20.258563 -0.640014 -86.574205 -23.452628 -14.218606 83.198753 7.388176 35.554317 27.354470 -48.871452 -1.920005 -20.178059 -24.983174 33.316686 5.177889 31.497766 2.519531 -10.179125 1.639870 25.513118 36.911978 56.799723 -38.714424 -29.075265
-32.223985 80.956267 -29.411268 35.138236 15.807252 118.732949 6.002961 39.121715 3.501660 -0.093398 27.929859 -9.189885 -23.740141 -3.469487 13.811444 -6.008584 8.632936 -17.841233 9.692565 -31.338499 -18.961860 40.963025 8.273494 -33.483244 -91.963559 -103.729673 -129.988718 -163.763156 25.248829 128.619606 117.635474 19.661357 239.909466 -19.923553 23.961791 53.612648 -11.083294 11.734513 26.205692 21.304740 -3.504819 -92.995573 -22.780370 -18.243317 89.292395 7.348474 39.462654 26.652559 -50.363090 -3.569674 -18.658134 -23.744108 29.456885 4.069364 32.374581 2.364240 -9.073387 -0.137367 24.710229 35.336120 55.474411 -35.760354 -31.571784
-32.588856 82.437218 -30.639531 34.067583 14.260593 117.877918 6.610886 37.558643 2.120504 -0.539005 30.408928 -8.177210 -24.444164 -6.687108 13.384618 -4.391991 7.644524 -18.734673 7.679229 -33.416690 -17.610927 39.976684 5.507004 -34.675132 -95.780323 -99.353332 -133.083722 -166.656015 22.818764 130.950122 117.247027 20.863014 244.235571 -20.921815 24.318436 54.925253 -12.068244 10.611163 26.694345 21.797678 -4.632957 -98.452505 -20.343213 -21.128881 92.648641 7.775784 40.987463 25.856769 -52.180992 -6.553171 -18.074730 -22.724833 26.594255 3.708032 32.723931 3.568484 -8.058721 -1.508071 23.725249 33.919522 54.096471 -33.589187 -34.132877
-33.096179 83.628863 -31.790227 33.065140 12.468048 118.355772 6.682853 35.389942 0.795773 -0.518358 32.989161 -7.160389 -24.764290 -9.310192 13.063301 -3.403363 6.559640 -19.405225 6.316073 -35.270513 -17.009987 38.801065 3.508127 -35.311299 -98.849271 -97.520731 -135.199578 -169.051813 20.414923 133.230585 116.377653 22.138863 248.450672 -21.649442 24.852530 56.706484 -12.831113 9.644485 27.631464 22.892591 -5.180236 -103.030371 -17.493989 -22.498186 93.977283 7.105041 44.012878 23.835202 -54.103684 -8.633119 -16.636908 -21.065738 22.871918 3.526478 33.152461 4.883856 -6.952280 -2.363728 23.106462 32.983386 52.835352 -31.805865 -36.819764
-33.736908 84.577349 -32.848773 32.055471 10.831369 118.414484 5.960461 33.958977 0.580358 -0.876488 35.037740 -6.074103 -24.703800 -11.376518 12.841008 -2.730308 6.277357 -20.340956 6.224023 -36.867992 -16.305750 37.917177 1.611192 -35.838522 -102.583902 -93.719683 -137.443009 -171.380156 17.834910 134.795368 115.405021 23.832113 253.209838 -22.714689 25.481583 57.874467 -13.224252 9.038476 28.514896 23.535391 -5.772228 -106.190624 -14.629985 -23.006121 93.706883 6.986470 46.796870 21.986739 -56.075867 -10.834423 -15.481710 -18.914979 19.936931 2.590558 33.178132 5.860376 -6.717555 -3.336460 22.809171 31.431708 51.594300 -30.405755 -39.858648
-34.470734 85.332736 -33.760666 31.033907 9.325668 118.791415 5.525381 32.717245 0.582871 -0.664967 36.307995 -5.042371 -24.315055 -12.777496 12.708231 -1.660718 6.265734 -20.682125 7.099792 -38.518736 -15.753280 36.964834 0.212790 -35.928397 -105.848780 -91.469962 -139.425457 -173.598178 15.001095 135.589664 114.221008 25.793827 258.761881 -24.073307 26.067740 58.390905 -13.486936 8.541703 29.408718 24.159909 -6.420784 -109.088721 -11.994495 -23.409970 93.263009 7.599029 48.121128 20.990204 -58.182953 -14.186222 -15.240423 -17.379164 17.195508 1.892257 32.587020 6.610062 -6.198984 -3.895789 22.113456 30.279403 50.286680 -29.176785 -42.312008
-35.226676 85.908679 -34.475920 30.446091 8.594399 119.622458 4.969989 32.881832 0.738604 -1.054011 37.477245 -4.582860 -23.500661 -13.827452 12.645888 -0.607528 6.765600 -20.869587 8.689566 -40.964097 -15.239701 36.022465 -0.734940 -35.946387 -109.811369 -88.303595 -141.212331 -175.822730 12.710218 135.710108 113.564462 28.359128 263.902500 -25.171393 26.280358 58.922130 -13.945162 7.858096 30.372956 24.404601 -7.398780 -111.383050 -10.306491 -24.525966 92.717059 8.174465 49.928369 19.973594 -60.434094 -16.494077 -14.294724 -15.927463 15.153774 2.001426 32.513476 9.762389 -4.943720 -7.410844 19.651499 29.196251 51.205337 -30.732498 -45.398136
-35.978624 86.229018 -34.951922 31.058318 9.887314 121.810482 5.604275 32.573732 0.718112 -0.842779 40.100717 -4.479805 -22.100925 -14.411672 12.593129 0.491998 7.306284 -21.624874 10.975220 -42.372663 -15.432939 35.453080 -2.486388 -36.768551 -111.534421 -85.825869 -144.511913 -177.022398 10.904098 136.068556 112.139193 31.776024 267.858053 -26.255201 26.094297 59.139685 -15.078520 6.660989 31.572993 23.463949 -7.258846 -113.578300 -9.665718 -25.581451 92.040057 8.404148 52.638933 18.718680 -62.694696 -17.486155 -12.651987 -15.201136 13.085751 3.758473 30.865423 16.585624 -3.828691 -5.372898 18.288296 28.959080 46.338913 -32.436114 -48.795087
-36.716773 86.318854 -35.331389 30.945408 10.183208 122.273527 6.369862 33.075078 0.934695 -0.684173 42.016520 -4.474447 -21.182590 -15.417673 12.773321 1.172703 8.094987 -22.421867 12.418274 -43.652992 -14.949961 35.054928 -3.091136 -36.521233 -114.194431 -83.122173 -145.958697 -177.630954 8.763362 136.124509 110.883661 34.469745 271.871199 -26.418926 25.741923 60.293816 -16.676733 5.122073 32.998505 22.766446 -7.179360 -115.543073 -8.643110 -25.908253 91.222395 9.068573 53.825200 18.284104 -64.812731 -19.806901 -11.906410 -14.571003 11.512640 4.090581 29.845283 21.007577 -2.224966 -5.673103 16.602684 29.093686 44.016208 -34.372118 -52.004842
